<?xml version="1.0" encoding="UTF-8"?>
<!DOCTYPE svg PUBLIC "-//W3C//DTD SVG 1.1//EN" "http://www.w3.org/Graphics/SVG/1.1/DTD/svg11.dtd">
<svg xmlns:xlink="http://www.w3.org/1999/xlink" xmlns="http://www.w3.org/2000/svg" width="1280" height="621" viewBox="0 0 1280 621">
 <g stroke="#000000" fill="#000000" font-family="Segoe UI" font-size="12">
  <g>
   <g fill="#F2F2F2">
    <rect stroke="none" x="12.5" y="2.5" width="1267" height="22"/>
   </g>
   <g stroke="#C5C5C5">
    <path fill="none" d="M12.5,2.5 L12.5,24.5 L1279.5,24.5 L1279.5,2.5 z"/>
   </g>
   <g font-size="14" font-weight="bold">
    <text stroke="none" x="15.5" y="12.5" dy="6.07">Graph Builder</text>
   </g>
   <g>
    <clipPath id="clip1">
     <path d="M-99999.5,24.5 L-99999.5,100000.5 L100000.5,100000.5 L100000.5,24.5 z"/>
    </clipPath>
    <g clip-path="url(#clip1)">
     <g fill="#DDDDDD">
      <rect stroke="none" x="69.5" y="47.5" width="1090" height="533"/>
     </g>
     <g>
      <clipPath id="clip2" clip-path="url(#clip1)">
       <path d="M12.5,25.5 L12.5,45.5 L1159.5,45.5 L1159.5,25.5 z"/>
      </clipPath>
      <g clip-path="url(#clip2)">
       <g>
        <clipPath id="clip3" clip-path="url(#clip2)">
         <path d="M433.5,25.5 L433.5,45.5 L737.5,45.5 L737.5,25.5 z"/>
        </clipPath>
        <g clip-path="url(#clip3)">
         <g fill="#000000" font-size="14" font-weight="bold">
          <text stroke="none" x="433.5" y="41.5">Job Openings vs. Date (Joshua de la Bruere)</text>
         </g>
        </g>
       </g>
      </g>
     </g>
     <g>
      <clipPath id="clip4" clip-path="url(#clip1)">
       <path d="M69.5,602.5 L69.5,620.5 L1159.5,620.5 L1159.5,602.5 z"/>
      </clipPath>
      <g clip-path="url(#clip4)">
       <g>
        <clipPath id="clip5" clip-path="url(#clip4)">
         <path d="M601.5,602.5 L601.5,618.5 L627.5,618.5 L627.5,602.5 z"/>
        </clipPath>
        <g clip-path="url(#clip5)">
         <g fill="#000000">
          <text stroke="none" x="601.5" y="615.5">Date</text>
         </g>
        </g>
       </g>
      </g>
     </g>
     <g>
      <clipPath id="clip6" clip-path="url(#clip1)">
       <path d="M59.5,580.5 L59.5,602.5 L1169.5,602.5 L1169.5,580.5 z"/>
      </clipPath>
      <g clip-path="url(#clip6)">
       <g stroke="#A5A5A5">
        <path fill="none" d="M69.5,580.5 L69.5,586.5"/>
        <path fill="none" d="M225.5,580.5 L225.5,586.5"/>
        <path fill="none" d="M380.5,580.5 L380.5,586.5"/>
        <path fill="none" d="M536.5,580.5 L536.5,586.5"/>
        <path fill="none" d="M692.5,580.5 L692.5,586.5"/>
        <path fill="none" d="M848.5,580.5 L848.5,586.5"/>
        <path fill="none" d="M1003.5,580.5 L1003.5,586.5"/>
        <path fill="none" d="M1159.5,580.5 L1159.5,586.5"/>
       </g>
       <text stroke="none" x="59.5" y="587.5" dy="12.95">2000/01/01</text>
       <text stroke="none" x="225.5" y="587.5" dy="12.95" text-anchor="middle">2003/01/01</text>
       <text stroke="none" x="380.5" y="587.5" dy="12.95" text-anchor="middle">2006/01/01</text>
       <text stroke="none" x="536.5" y="587.5" dy="12.95" text-anchor="middle">2009/01/01</text>
       <text stroke="none" x="692.5" y="587.5" dy="12.95" text-anchor="middle">2012/01/01</text>
       <text stroke="none" x="848.5" y="587.5" dy="12.95" text-anchor="middle">2015/01/01</text>
       <text stroke="none" x="1003.5" y="587.5" dy="12.95" text-anchor="middle">2018/01/01</text>
       <text stroke="none" x="1169.5" y="587.5" dy="12.95" text-anchor="end">2021/01/01</text>
      </g>
     </g>
     <g>
      <clipPath id="clip7" clip-path="url(#clip1)">
       <path d="M69.5,580.5 L69.5,602.5 L1159.5,602.5 L1159.5,580.5 z"/>
      </clipPath>
      <g clip-path="url(#clip7)"/>
     </g>
     <g>
      <clipPath id="clip8" clip-path="url(#clip1)">
       <path d="M12.5,47.5 L12.5,580.5 L30.5,580.5 L30.5,47.5 z"/>
      </clipPath>
      <g clip-path="url(#clip8)">
       <g fill="#000000">
        <g transform="translate(14.5,313.5)">
         <g transform="rotate(-90)">
          <text stroke="none" dy="12.95" text-anchor="middle">Job Openings</text>
         </g>
        </g>
       </g>
      </g>
     </g>
     <g>
      <clipPath id="clip9" clip-path="url(#clip1)">
       <path d="M30.5,37.5 L30.5,590.5 L69.5,590.5 L69.5,37.5 z"/>
      </clipPath>
      <g clip-path="url(#clip9)">
       <g stroke="#A5A5A5">
        <path fill="none" d="M66.5,536.5 L69.5,536.5"/>
        <path fill="none" d="M66.5,447.5 L69.5,447.5"/>
        <path fill="none" d="M66.5,358.5 L69.5,358.5"/>
        <path fill="none" d="M66.5,269.5 L69.5,269.5"/>
        <path fill="none" d="M66.5,180.5 L69.5,180.5"/>
        <path fill="none" d="M66.5,91.5 L69.5,91.5"/>
        <path fill="none" d="M63.5,580.5 L69.5,580.5"/>
        <path fill="none" d="M63.5,491.5 L69.5,491.5"/>
        <path fill="none" d="M63.5,402.5 L69.5,402.5"/>
        <path fill="none" d="M63.5,313.5 L69.5,313.5"/>
        <path fill="none" d="M63.5,225.5 L69.5,225.5"/>
        <path fill="none" d="M63.5,136.5 L69.5,136.5"/>
        <path fill="none" d="M63.5,47.5 L69.5,47.5"/>
       </g>
       <text stroke="none" x="61.5" y="580.5" dy="4.97" text-anchor="end">2000</text>
       <text stroke="none" x="61.5" y="491.5" dy="4.97" text-anchor="end">3000</text>
       <text stroke="none" x="61.5" y="402.5" dy="4.97" text-anchor="end">4000</text>
       <text stroke="none" x="61.5" y="313.5" dy="4.97" text-anchor="end">5000</text>
       <text stroke="none" x="61.5" y="225.5" dy="4.97" text-anchor="end">6000</text>
       <text stroke="none" x="61.5" y="136.5" dy="4.97" text-anchor="end">7000</text>
       <text stroke="none" x="61.5" y="47.5" dy="4.97" text-anchor="end">8000</text>
      </g>
     </g>
     <g>
      <clipPath id="clip10" clip-path="url(#clip1)">
       <path d="M30.5,47.5 L30.5,580.5 L69.5,580.5 L69.5,47.5 z"/>
      </clipPath>
      <g clip-path="url(#clip10)"/>
     </g>
     <g fill="#FFFFFF">
      <rect stroke="none" x="69.5" y="47.5" width="1090" height="533"/>
     </g>
     <g>
      <g>
       <clipPath id="clip11" clip-path="url(#clip1)">
        <path d="M69.5,47.5 L69.5,580.5 L1159.5,580.5 L1159.5,47.5 z"/>
       </clipPath>
       <g clip-path="url(#clip11)">
        <g>
         <g stroke-width="2" stroke="#3859A5">
          <path fill="none" d="M117.1,325.73 L121.51,281.84 L125.91,313.29 L129.89,340.83 L134.29,336.03 L138.56,358.15 L142.96,369.25 L147.23,351.49 L151.63,399.1 L156.04,398.84 L160.3,426.91 L164.7,434.01 L168.97,445.21 L173.37,422.2 L177.78,458.18 L181.75,440.77 L186.16,440.5 L190.42,446.54 L194.83,454.8 L199.09,450.71 L203.49,444.5 L207.9,465.91 L212.16,447.07 L216.57,455.69 L220.83,488.2 L225.23,447.25 L229.64,475.85 L233.62,485.98 L238.02,473.19 L242.29,461.82 L246.69,456.31 L250.95,485.18 L255.36,473.54 L259.76,484.38 L264.03,462.35 L268.43,472.3 L272.69,466.7 L277.1,450.63 L281.5,449.2 L285.62,447.96 L290.03,437.03 L294.29,424.33 L298.7,461.02 L302.96,411.72 L307.36,442.28 L311.77,418.02 L316.03,405.5 L320.44,459.69 L324.7,408.61 L329.11,418.2 L333.51,411.63 L337.49,401.15 L341.89,378.67 L346.16,416.87 L350.56,396.44 L354.82,372.9 L359.23,388.62 L363.63,369.43 L367.9,383.47 L372.3,392.35 L376.56,389.86 L380.97,366.94 L385.37,379.74 L389.35,340.12 L393.76,321.55 L398.02,357.97 L402.43,347.31 L406.69,361.35 L411.09,337.19 L415.5,333.72 L419.76,345.71 L424.17,355.75 L428.43,361.17 L432.83,336.21 L437.24,347.93 L441.22,320.57 L445.62,329.99 L449.88,340.74 L454.29,324.48 L458.55,343.49 L462.96,350.78 L467.36,342.25 L471.62,342.78 L476.03,355.13 L480.29,367.3 L484.7,349.18 L489.1,382.14 L493.22,384.62 L497.63,391.82 L501.89,381.78 L506.3,416.25 L510.56,420.6 L514.96,428.68 L519.37,470.35 L523.63,455.87 L528.04,477.63 L532.3,486.43 L536.7,515.56 L541.11,506.06 L545.09,534.22 L549.49,550.03 L553.75,529.51 L558.16,534.57 L562.42,557.05 L566.83,548.08 L571.23,537.77 L575.5,543.01 L579.9,541.86 L584.16,537.24 L588.57,506.5 L592.97,522.67 L596.95,520.18 L601.36,472.39 L605.62,489.98 L610.02,508.28 L614.29,480.38 L618.69,489.45 L623.1,499.48 L627.36,468.93 L631.76,479.76 L636.03,494.42 L640.43,482.78 L644.84,472.75 L648.82,469.19 L653.22,461.73 L657.48,473.28 L661.89,450.18 L666.15,431.62 L670.56,459.86 L674.96,423.89 L679.22,433.92 L683.63,448.58 L687.89,432.86 L692.3,411.36 L696.7,437.92 L700.82,404.97 L705.23,413.67 L709.49,415.18 L713.89,410.3 L718.16,421.49 L722.56,417.14 L726.97,415.18 L731.23,419.89 L735.63,421.75 L739.9,417.05 L744.3,410.38 L748.71,404.52 L752.69,395.73 L757.09,395.9 L761.35,387.47 L765.76,388.09 L770.02,407.63 L774.43,392.88 L778.83,393.51 L783.09,379.03 L787.5,402.66 L791.76,403.19 L796.17,391.2 L800.57,372.01 L804.55,368.37 L808.96,344.03 L813.22,333.99 L817.62,314.09 L821.89,321.2 L826.29,279.98 L830.7,325.02 L834.96,308.14 L839.36,338.96 L843.63,315.69 L848.03,281.84 L852.44,274.38 L856.41,295.52 L860.82,250.75 L865.08,260.79 L869.49,290.64 L873.75,212.46 L878.15,268.69 L882.56,274.47 L886.82,240.09 L891.23,263.1 L895.49,253.95 L899.89,225.7 L904.3,246.75 L908.42,213 L912.83,236.89 L917.09,241.87 L921.49,245.78 L925.76,216.82 L930.16,250.4 L934.57,241.51 L938.83,258.39 L943.23,236.98 L947.5,239.82 L951.9,260.08 L956.31,236.54 L960.28,241.51 L964.69,212.55 L968.95,238.4 L973.36,193.99 L977.62,193.72 L982.03,195.41 L986.43,203.94 L990.69,191.14 L995.1,207.04 L999.36,204.29 L1003.77,167.87 L1008.17,174.09 L1012.15,148.33 L1016.55,137.67 L1020.82,133.85 L1025.22,111.46 L1029.48,107.37 L1033.89,114.21 L1038.29,111.28 L1042.56,115.28 L1046.96,91.12 L1051.22,109.42 L1055.63,90.14 L1060.03,132.07 L1064.01,104 L1068.42,111.1 L1072.68,109.68 L1077.09,119.9 L1081.35,115.37 L1085.75,121.59 L1090.16,132.25 L1094.42,108.88 L1098.83,154.72 L1103.09,176.13 L1107.49,135.27 L1111.9,135.98 L1116.02,224.19 L1120.42,309.91"/>
         </g>
        </g>
       </g>
      </g>
     </g>
     <g stroke-linecap="square" stroke="#A5A5A5">
      <path fill="none" d="M69.5,580.5 L69.5,47.5 L1159.5,47.5 L1159.5,580.5 L69.5,580.5"/>
     </g>
     <g>
      <g>
       <clipPath id="clip12" clip-path="url(#clip1)">
        <path d="M1163.5,47.5 L1163.5,66.5 L1279.5,66.5 L1279.5,47.5 z"/>
       </clipPath>
       <g clip-path="url(#clip12)">
        <g stroke-width="2" stroke="#3859A5" fill="none">
         <path fill="none" d="M1165.5,57 L1185.5,57"/>
        </g>
        <text stroke="none" x="1188.5" y="56.5" dy="4.97">Job Openings</text>
       </g>
      </g>
     </g>
    </g>
   </g>
  </g>
 </g>
</svg>